<?xml version="1.0" encoding="UTF-8"?>
<svg id="_레이어_1" data-name="레이어 1" xmlns="http://www.w3.org/2000/svg" viewBox="0 0 360 360">
  <defs>
    <style>
      .cls-1 {
        fill: #dbe8fe;
      }

      .cls-2 {
        fill: #3b84fe;
      }

      .cls-3 {
        fill: #dae7fe;
      }

      .cls-4 {
        fill: #3d85fe;
      }
    </style>
  </defs>
  <path class="cls-2" d="M241.27,263.72l-121.37-.11c-3.84,0-7.35-3.03-9.07-5.63-2.52-3.8-3.02-7.78-2.77-12.23.92-15.98,8.41-30.19,20.17-40.94,23.28-21.28,62.41-23.18,90.05-8.59,21.54,11.37,34.6,31.74,33.6,56.13-1.06,5.88-4.51,9.51-10.61,11.36Z"/>
  <ellipse class="cls-4" cx="179.92" cy="136.14" rx="39.88" ry="39.87"/>
  <g>
    <path class="cls-3" d="M320.03,254.55l-53.63.14c-3.61,0-5.77-3.63-5.94-6.7l-.5-9.1c-1.53-11.56-6.77-22.16-14.34-30.96-2.03-2.37-3.81-4.48-6.69-6.32,20.93-11.88,49.56-12.33,69.31.61,8.96,5.87,15.93,14.06,19.6,24.1,2.14,5.85,3.34,11.47,2.44,17.66-.73,5.03-4.22,10.55-10.25,10.57Z"/>
    <ellipse class="cls-1" cx="273.06" cy="151.72" rx="32.72" ry="32.71"/>
  </g>
  <g>
    <path class="cls-3" d="M98.99,247.91c-.08,3.49-3.16,6.78-6.8,6.79l-50.53.11c-4.13,0-7.45-1.63-9.95-5.05-2.21-3.02-2.48-7.31-2.2-11.4.85-12.25,6.91-23.16,15.98-31.42,17.63-16.07,46.66-18.12,67.83-8.51l6.7,3.04c-9.48,8.82-16.28,19.41-19.37,31.58-1.29,5.07-1.54,9.74-1.65,14.86Z"/>
    <ellipse class="cls-1" cx="87.08" cy="151.71" rx="32.69" ry="32.68"/>
  </g>
</svg>