<?xml version="1.0" encoding="UTF-8"?>
<svg id="_레이어_1" data-name="레이어 1" xmlns="http://www.w3.org/2000/svg" viewBox="0 0 360 360">
  <defs>
    <style>
      .cls-1 {
        fill: #dbe8fe;
      }

      .cls-2 {
        fill: #3b84fe;
      }

      .cls-3 {
        fill: #dae7fe;
      }

      .cls-4 {
        fill: #3d85fe;
      }
    </style>
  </defs>
  <path class="cls-2" d="M250.57,276.43l-139.79-.12c-4.42,0-8.47-3.49-10.45-6.48-2.9-4.37-3.48-8.96-3.19-14.08,1.06-18.41,9.69-34.77,23.23-47.15,26.82-24.51,71.88-26.69,103.71-9.89,24.81,13.1,39.84,36.55,38.69,64.64-1.22,6.77-5.2,10.95-12.21,13.09Z"/>
  <ellipse class="cls-4" cx="179.91" cy="129.49" rx="45.93" ry="45.92"/>
  <g>
    <path class="cls-3" d="M341.28,265.86l-61.77.16c-4.15.01-6.65-4.18-6.84-7.71l-.57-10.48c-1.76-13.31-7.8-25.52-16.51-35.65-2.34-2.73-4.39-5.16-7.71-7.28,24.11-13.68,57.08-14.2,79.82.7,10.32,6.76,18.35,16.19,22.57,27.76,2.46,6.74,3.84,13.21,2.81,20.34-.84,5.79-4.86,12.15-11.81,12.17Z"/>
    <ellipse class="cls-1" cx="287.18" cy="147.43" rx="37.69" ry="37.67"/>
  </g>
  <g>
    <path class="cls-3" d="M86.7,258.21c-.09,4.02-3.64,7.81-7.84,7.82l-58.19.12c-4.76.01-8.58-1.88-11.46-5.82-2.54-3.48-2.86-8.42-2.54-13.13.98-14.11,7.96-26.67,18.4-36.19,20.3-18.5,53.74-20.87,78.12-9.8l7.71,3.5c-10.92,10.16-18.75,22.36-22.31,36.37-1.48,5.84-1.77,11.21-1.91,17.11Z"/>
    <ellipse class="cls-1" cx="72.98" cy="147.42" rx="37.65" ry="37.63"/>
  </g>
</svg>